PathFileType	4	(X/Y/Z)	C:/Users/beibeiliu/ov580/test_trc/User1\sequence.21_training_dense_left.trc
DataRate	CameraRate	NumFrames	NumMarkers	Units	OrigDataRate	OrigDataStartFrame	OrigNumFrames
120	120	20	19	mm	120	106	280
Frame#	Time	ThumbCMC			ThumbMCP			ThumbIP			ThumbTip			IndexMCP			IndexPIP			IndexTip			MiddleMCP			MiddlePIP			MiddleTip			RingMCP			RingPIP			RingTip			PinkyMCP			PinkyPIP			PinkyTip			BackHand1			BackHand2			BackHand3	
		X0	Y0	Z0	X1	Y1	Z1	X2	Y2	Z2	X3	Y3	Z3	X4	Y4	Z4	X5	Y5	Z5	X6	Y6	Z6	X7	Y7	Z7	X8	Y8	Z8	X9	Y9	Z9	X10	Y10	Z10	X11	Y11	Z11	X12	Y12	Z12	X13	Y13	Z13	X14	Y14	Z14	X15	Y15	Z15	X16	Y16	Z16	X17	Y17	Z17	X18	Y18	Z18	
105	0.875	-136.476	46.7684	31.4481	-113.504	43.2499	3.12357	-122.884	40.5368	-26.8124	-137.355	27.6034	-44.3117	-136.375	84.9335	-43.7963	-140.832	89.469	-67.8588	-141.671	97.5056	-97.4923	-158.92	83.1446	-56.8465	-156.488	87.3115	-82.4559	-153.654	93.0131	-113.262	-180.544	71.0969	-54.2262	-174.088	80.324	-82.747	-172.363	86.1532	-109.008	-199.524	52.0764	-46.4551	-195.022	59.4108	-65.1912	-187.795	70.6662	-84.7043	-190.316	64.0349	-0.122658	-199.231	58.2512	33.0785	-164.992	69.9037	18.5247	
106	0.883333	-130.102	41.7274	33.0358	-108.286	36.1424	2.51747	-119.891	35.3956	-29.2233	-143.83	24.9921	-46.725	-131.804	82.965	-46.8414	-132.645	89.7556	-69.6094	-135.611	94.7918	-95.953	-155.946	83.9587	-60.1418	-151.531	87.411	-83.4137	-151.762	94.1166	-114.725	-176.067	73.5131	-54.9754	-173.503	80.0015	-80.8041	-170.692	86.3297	-104.849	-193.989	58.4986	-48.178	-195.528	64.1663	-65.9856	-189.719	77.6483	-88.5973	-189.132	65.2269	-2.90253	-196.492	59.2756	33.2523	-156.839	68.394	22.4466	
107	0.891667	-131.449	36.8656	31.7031	-110.805	33.5543	-1.92201	-119.328	31.0294	-28.5397	-142.468	23.1262	-48.6073	-126.651	78.8153	-44.346	-128.887	86.1168	-69.878	-132.938	91.7326	-97.0124	-152.299	82.8425	-60.8204	-146.913	87.8904	-86.2682	-147.799	92.5113	-112.067	-174.067	75.0978	-57.8081	-172.468	82.2431	-80.4381	-164.292	89.0481	-104.69	-193.554	62.3759	-46.6144	-190.515	66.9968	-64.2316	-184.183	79.8585	-85.4307	-186.944	68.2729	-2.28153	-192.577	62.0477	32.6722	-153.317	69.8782	20.7701	
108	0.9	-129.84	34.4373	30.7292	-112.388	28.4808	-1.41173	-118.662	26.8972	-30.9846	-141.207	19.5744	-47.7345	-123.74	75.922	-46.1683	-125.152	83.7187	-70.8341	-125.131	91.09	-98.9694	-146.444	82.48	-61.2934	-143.766	87.1214	-88.1817	-141.685	93.6101	-115.131	-170.99	77.2652	-60.9838	-168.7	83.7271	-80.8019	-162.282	89.8014	-106.297	-192.319	64.7417	-47.1682	-189.974	71.9353	-67.3923	-180.929	83.4212	-82.5968	-180.516	70.655	-1.53609	-187.362	66.6575	30.8578	-150.606	66.7376	17.7296	
109	0.908333	-129.643	33.1813	26.8731	-108.732	22.7565	-3.31417	-121.037	22.118	-31.0944	-146.277	18.6464	-48.9884	-124.72	73.0338	-49.4342	-123.44	79.6755	-69.9915	-124.409	86.8827	-95.4258	-146.402	79.5362	-57.6122	-142.001	86.6249	-86.5812	-143.794	92.0758	-112.675	-168.477	77.5848	-58.7556	-164.327	84.4904	-84.2061	-162.705	89.7406	-104.45	-192.124	67.8144	-47.9401	-184.833	73.1712	-66.1878	-181.703	86.1696	-84.5683	-180.457	70.0042	0.649345	-184.993	68.0092	33.3634	-147.515	66.0359	20.8683	
110	0.916667	-128.905	29.0252	30.5138	-110.476	20.0461	-5.7444	-123.307	20.5629	-32.7913	-147.666	19.1548	-45.8503	-123.008	70.2503	-48.588	-124.646	78.47	-74.3015	-124.401	85.4897	-95.5145	-144.034	79.3918	-60.9326	-142.777	85.5448	-87.4775	-139.779	93.2523	-117.727	-165.93	77.7575	-57.7159	-163.235	84.2752	-81.7233	-161.537	90.9515	-105.694	-189.04	68.1466	-45.9482	-185.323	73.4484	-64.9728	-178.428	83.9524	-83.9754	-179.579	71.2765	0.173681	-185.057	68.8504	33.0334	-144.876	65.251	20.4623	
111	0.925	-130.221	28.079	29.0766	-113.066	15.5348	-0.404824	-122.293	17.1914	-30.2001	-145.78	14.5235	-49.1211	-121.54	66.7636	-49.2887	-122.974	74.869	-72.2316	-124.658	82.7805	-99.7911	-141.596	77.9241	-61.2311	-142.667	81.8899	-85.9065	-141.09	89.7327	-117.02	-167.478	76.7713	-58.5752	-164.088	83.9501	-82.0267	-160.273	88.822	-105.786	-192.287	69.1551	-43.1228	-187.86	75.3094	-62.5305	-179.672	88.0355	-86.4672	-174.307	72.0939	-4.08099	-180.882	69.1082	32.3595	-147.391	63.5441	20.0639	
112	0.933333	-128.719	25.125	31.0051	-113.237	14.5651	-3.29046	-123.848	15.9094	-30.7514	-147.988	13.133	-50.3376	-120.428	63.719	-49.2507	-118.57	71.8943	-75.8496	-122.94	80.4065	-102.763	-146.4	75.606	-59.1602	-138.898	78.8118	-84.8041	-138.84	85.225	-113.78	-165.833	75.995	-59.9695	-162.402	82.0309	-82.1087	-157.826	86.1639	-106.002	-188.903	69.2108	-46.8245	-184.765	72.8559	-61.9544	-177.144	84.1075	-86.2514	-176.351	71.1252	-0.292177	-179.307	69.2864	30.2007	-144.267	63.7161	17.9263	
113	0.941667	-127.47	25.1666	27.311	-113.539	13.165	-1.79658	-123.493	13.8116	-32.7484	-148.765	13.2568	-51.7598	-121.253	61.7064	-49.7089	-120.533	71.1488	-77.8613	-122.677	78.3892	-103.216	-145.784	75.9217	-64.7557	-138.729	78.0181	-86.0038	-140.332	85.867	-120.029	-163.992	76.0839	-60.7675	-160.185	80.3835	-82.5969	-158.241	87.8123	-109.854	-190.112	69.0299	-44.157	-186.557	76.0751	-66.2187	-178.873	86.1924	-87.5454	-170.767	71.696	-2.6466	-181.359	71.2315	31.3869	-143.148	61.2522	19.7464	
114	0.95	-132.379	25.3075	30.4909	-115.825	15.5988	-5.03543	-126.137	17.0045	-33.7401	-147.842	14.2303	-48.4365	-120.838	62.9649	-49.9007	-120.463	69.5522	-77.0523	-126.364	76.6656	-99.7185	-141.805	74.0943	-60.7563	-141.071	79.1391	-90.8632	-138.34	83.4695	-114.412	-166.538	77.7744	-61.1621	-161.771	80.7688	-81.3394	-158.314	85.9295	-106.422	-188.898	68.6292	-41.2161	-184.055	74.3769	-62.3424	-179.99	85.3209	-84.2331	-175.245	70.9591	1.11733	-181.708	71.688	28.6545	-145.796	63.7597	19.886	
115	0.958333	-132.97	27.0095	28.1937	-116.334	15.4118	-0.350255	-124.952	17.7081	-33.9193	-146.762	17.0652	-49.8563	-120.774	63.8991	-47.7754	-119.813	72.013	-76.1273	-122.08	77.1829	-98.143	-145.572	77.4851	-60.4234	-143.309	82.0365	-89.4221	-139.133	85.6977	-113.507	-164.656	77.1662	-54.6046	-160.087	84.8849	-84.3636	-157.144	87.8792	-106.969	-189.489	72.7656	-43.5085	-188.053	77.5195	-61.8488	-176.187	86.9306	-84.25	-175.36	72.8431	-0.374661	-179.304	71.7531	31.8288	-141.736	61.7038	19.5297	
116	0.966667	-133.529	26.8761	31.6847	-116.032	20.0764	-3.71048	-122.968	20.4778	-30.6747	-147.081	22.7811	-48.6294	-123.146	66.9052	-45.8362	-122.96	75.655	-70.3177	-122.964	82.6878	-97.823	-145.878	81.6404	-55.5779	-139.307	87.1792	-83.9679	-141.307	94.2354	-112.521	-167.183	82.204	-52.3995	-159.955	89.7251	-80.1112	-159.443	95.6357	-103.437	-188.177	74.9743	-41.2236	-188.438	82.487	-58.371	-179.482	93.6328	-79.9559	-172.052	75.9434	2.60657	-182.746	74.7392	34.0495	-143.498	64.5561	23.9819	
117	0.975	-132.716	27.3808	31.7019	-113.377	21.8128	-3.63088	-122.099	25.5535	-29.283	-143.267	26.8386	-49.0267	-123.884	74.2546	-45.4427	-119.794	82.5781	-69.9436	-122.76	91.0478	-95.8472	-145.962	87.2565	-52.2538	-143.414	94.2031	-78.9743	-142.313	102.627	-106.651	-164.221	86.5958	-50.2736	-160.005	95.1886	-72.3918	-158.194	103.661	-100.228	-192.402	79.3103	-36.4359	-187.872	87.9658	-57.0696	-176.692	100.548	-77.1427	-174.221	78.2557	2.58075	-180.558	70.8485	39.1211	-147.556	67.2206	22.6434	
118	0.983333	-135.156	31.4673	30.3148	-115.051	27.2433	-2.10594	-123.885	33.1614	-28.4054	-142.181	31.4333	-52.3299	-121.048	79.967	-40.2337	-118.845	91.3847	-65.4844	-122.476	100.287	-88.9621	-143.421	92.614	-48.0134	-138.658	101.321	-73.2762	-138.867	112.97	-103.177	-167.206	95.842	-48.9938	-162.447	105.498	-68.7464	-157.205	115.527	-95.756	-191.572	84.2488	-34.065	-187.975	94.1273	-51.3091	-174.985	106.967	-71.3688	-177.762	81.4738	8.36787	-184.135	73.6044	40.8902	-145.918	66.0312	28.5331	
119	0.991667	-135.664	33.6676	31.1906	-113.196	30.6991	-0.0408607	-121.204	38.0399	-29.2219	-144.687	38.1909	-48.0019	-120.305	83.2207	-33.2176	-118.014	97.6096	-56.7367	-119.977	110.489	-83.3226	-144.526	101.09	-44.317	-138.226	112.728	-70.9748	-135.698	125.289	-98.5307	-165.127	101.744	-42.4683	-157.333	112.905	-64.1356	-156.327	123.192	-87.0467	-189.281	89.5352	-31.8649	-186.343	100.491	-49.3598	-172.518	113.591	-67.9753	-176.723	85.9571	8.32299	-185.822	76.1272	40.5127	-149.604	70.4333	31.2845	
120	1	-133.876	32.8017	35.2112	-116.163	32.1852	5.09252	-123.15	41.1666	-24.7623	-141.924	41.7484	-43.0684	-121.616	91.9261	-30.4822	-119.821	104.888	-50.2544	-117.82	119.386	-73.4345	-145.261	104.44	-36.4728	-136.898	119.122	-63.3953	-136.051	132.56	-88.0152	-163.871	103.295	-34.0288	-158.284	118.009	-56.2914	-154.96	133.869	-81.8469	-186.355	94.0997	-29.2191	-181.284	107.155	-45.9405	-174.567	120.926	-57.569	-179.119	85.2362	14.7627	-187.136	74.9283	43.4688	-145.339	70.8801	30.5311	
121	1.00833	-132.633	34.1335	35.4665	-115.024	33.294	5.78527	-121.197	44.9502	-23.7003	-147.966	48.6232	-43.5873	-123.775	96.0751	-25.8449	-120.814	111.941	-44.4969	-121.771	130.077	-69.754	-143.366	111.646	-35.6059	-135.166	123.501	-54.5127	-136.66	142.021	-79.2107	-167.764	109.26	-32.2039	-161.669	126.288	-52.774	-156.009	140.423	-73.9871	-190.445	97.1337	-23.1935	-185.886	111.658	-38.458	-176.924	128.233	-52.8887	-176.532	86.8821	14.0366	-188.04	74.6691	46.9024	-147.872	72.5947	35.6296	
122	1.01667	-137.733	35.0128	36.1404	-115.682	37.8322	5.33248	-120.508	48.489	-26.4974	-147.567	51.7661	-42.2237	-122.261	100.734	-22.875	-120.026	115.557	-39.1088	-118.369	132.705	-59.4186	-143.584	114.758	-30.2656	-136.009	130.094	-51.1895	-131.903	149.847	-75.0137	-166.594	114.363	-30.6982	-160.729	132.202	-48.5399	-156.691	145.619	-67.2589	-189.47	103.676	-23.8114	-184.935	114.655	-34.8097	-172.972	132.392	-48.675	-178.714	90.0029	14.4679	-187.174	77.2376	48.4891	-146.925	71.9819	36.6238	
123	1.025	-132.044	37.4107	36.0689	-114.203	40.9326	3.68467	-122.79	51.4687	-23.8272	-146.438	51.6629	-42.3381	-119.928	100.723	-18.4603	-120.489	123.023	-37.2249	-118.651	141.229	-58.3269	-142.156	117.12	-27.2622	-139.731	135.511	-47.8029	-132.99	154.502	-68.8499	-164.34	113.513	-24.9194	-160.425	134.942	-45.0352	-154.08	151.799	-64.0004	-189.093	100.996	-19.0218	-182.903	117.434	-33.6028	-178.02	136.869	-42.4562	-179.899	88.54	19.8115	-184.234	77.5416	47.3304	-151.04	74.3478	39.3063	
124	1.03333	-134.103	39.2437	35.8913	-116.92	41.3281	5.67283	-121.457	52.9121	-25.0394	-147.58	53.6769	-39.7225	-124.186	102.825	-16.9609	-123.791	122.824	-33.5874	-122.766	143.247	-53.124	-141.736	118.101	-24.2073	-140.079	139.317	-45.5959	-134.991	158.645	-64.9484	-167.203	116.459	-23.6595	-159.924	135.337	-40.1402	-152.385	155.081	-61.1533	-191.951	103.044	-18.756	-184.182	120.269	-32.9001	-176.592	141.13	-41.4967	-175.545	90.9124	18.6759	-187.632	78.079	50.475	-150.563	73.445	39.2591	
